PathFileType	4	(X/Y/Z)	Patient4_TMGait_0pt7_01_left_03.trc.trc
DataRate	CameraRate	NumFrames	NumMarkers	Units	OrigDataRate	OrigDataStartFrame	OrigNumFrames
83.832335329341	83.832335329341	5	33	mm	83.832335329341	18	       141
Frame#	Time	Sacral			L.Shoulder			Chest			R.Shoulder			Neck			R.ASIS			L.ASIS			R.Thigh.Superior			R.Thigh.Lateral			R.Thigh.Inferior			R.Patella			L.Thigh.Superior			L.Thigh.Lateral			L.Thigh.Inferior			L.Patella			L.Shank.Superior			L.Shank.Lateral			L.Shank.Inferior			R.Shank.Superior			R.Shank.Lateral			R.Shank.Inferior			R.Heel			R.Midfoot.Superior			R.Midfoot.Lateral			R.Toe			L.Heel			L.Midfoot.Lateral			L.Midfoot.Superior			L.Toe			L.Elbow			L.Wrist			R.Elbow			R.Wrist			
		X1	Y1	Z1	X2	Y2	Z2	X3	Y3	Z3	X4	Y4	Z4	X5	Y5	Z5	X6	Y6	Z6	X7	Y7	Z7	X8	Y8	Z8	X9	Y9	Z9	X10	Y10	Z10	X11	Y11	Z11	X12	Y12	Z12	X13	Y13	Z13	X14	Y14	Z14	X15	Y15	Z15	X16	Y16	Z16	X17	Y17	Z17	X18	Y18	Z18	X19	Y19	Z19	X20	Y20	Z20	X21	Y21	Z21	X22	Y22	Z22	X23	Y23	Z23	X24	Y24	Z24	X25	Y25	Z25	X26	Y26	Z26	X27	Y27	Z27	X28	Y28	Z28	X29	Y29	Z29	X30	Y30	Z30	X31	Y31	Z31	X32	Y32	Z32	X33	Y33	Z33	

18	3.652785714286	685.441662780484	1010.863571456731	567.630104677496	891.895458638917	1421.693028810543	376.113118316957	993.499128081996	1345.633276318577	535.042152633713	925.088696950025	1435.871402009218	705.889330839323	905.455760324689	1485.419341666543	534.577901257121	906.926401246774	938.801405278595	686.085973916136	896.185891452569	951.446404301963	409.329988339075	906.893722902769	727.053982039306	662.872659408208	799.374478563576	633.825714610319	717.415517053582	866.456456195028	567.743812647738	643.061427585342	848.830765451585	484.542992892191	646.597536313226	972.497753538259	787.149959410223	445.709337383526	948.046511016602	661.583891104999	350.606623426249	1050.165577272903	608.607233318668	418.034985537614	1084.707966282123	543.795787277840	410.389531266760	1069.262131914413	468.432371170610	397.000177318065	1007.388709218007	340.049406191477	336.599707877679	1092.374766328652	239.665413841281	392.337093870011	813.404746557958	400.021419578363	650.846564471807	729.546306093749	302.845161675847	705.659163854817	768.175164147257	204.895951395847	644.914333175127	627.161995035922	44.238623728901	601.583049592252	794.141543546915	96.418886649487	654.220105270996	701.936614357808	37.166040225486	684.429655850496	910.360677969067	41.145015547582	695.737032217538	1013.518290013886	52.630705396728	418.641267376416	1090.147698498774	66.914318589193	341.971752300812	1153.579607732997	149.049001347003	369.494011257082	1289.884031632265	132.644443385923	347.192238105642	741.905479539661	1101.017782253430	284.349633559528	698.447046601476	846.298729045019	284.407147941684	1083.316401248414	1149.056266361300	821.092651363784	1260.630634535836	1268.687270898317	695.426276864874	
19	3.664714285714	686.853936953976	1009.193935510126	565.007811904263	891.159614988175	1420.788690873750	373.991988672993	992.683381792054	1345.445939214046	533.309915000036	923.000082149687	1435.290337731647	703.804793844376	903.449924175603	1484.598230633126	532.190712201853	907.749950672526	937.690394715283	684.647449840960	898.461266118430	949.715611629330	407.834650762107	905.785923218423	725.451579512959	661.685516606775	797.033852953147	633.212104426551	716.204569615882	863.407135566493	566.363713363827	642.071521825272	844.787157965505	483.185750407987	645.614465849314	973.352921908819	783.404643098212	444.687528333054	946.831616147317	657.567727426259	350.213813461688	1048.381259319494	603.822130869765	417.651533834146	1081.792711679864	539.026234060827	410.520738967998	1066.512816684799	464.162983140054	396.962732251432	1004.662069225830	335.264341204973	338.024604590239	1090.696562830751	235.623100722781	393.580109049428	808.448494633907	398.941728409202	650.043927764357	723.543657837366	302.745066232738	705.024190234230	761.070961141417	204.303090070895	644.523132619742	618.778731417747	44.213616410104	601.529474688172	785.831058255390	96.458703530718	654.259885897587	693.495590167244	37.147646344249	684.381876824633	901.883790553810	41.084601062812	695.817564017427	1012.814332428591	49.059388927969	421.611185851556	1088.732189681274	62.799780643392	344.218635185525	1152.555208815682	144.685215778290	370.838841758299	1288.556762342363	127.731520137657	347.469009743181	739.265188788456	1101.502310990692	282.417721076156	696.153120450869	846.469826295187	283.509634594636	1083.361023627097	1150.431074011935	819.972908989497	1258.110517492871	1273.105408428326	694.145036745077	
20	3.676642857143	688.459724955982	1007.252265717292	562.151168328153	890.427827989023	1419.712773278151	371.691030908008	991.840576312995	1345.205210450483	531.478551198138	920.642567064395	1434.533567262303	701.614013044915	901.197330350847	1483.566138465438	529.418336481450	908.805456532624	936.379079903453	683.050961094715	901.000647154571	947.842678915741	406.236159834511	905.103715214748	723.686186465802	660.328692764819	795.170922944533	632.418331642034	714.844730883798	860.837155745109	564.814205135062	640.907558062106	841.182807756107	481.619620865296	644.417526513753	974.493217574089	779.367728260711	443.519164827209	945.679069138294	653.315693295759	349.841924165646	1046.777178616399	598.887300248218	417.253647039535	1078.841788220232	533.799941001709	410.679453017464	1063.459675957936	459.393698030283	396.971829128413	1000.985135517844	330.267530043737	339.604974467884	1087.638645394949	231.008794958929	394.945356020957	803.896377058665	397.669026246485	649.092621704587	717.868747153238	302.556180048320	704.315319255449	754.112448052711	203.584081633436	644.047678823682	610.396318467613	44.163191363227	601.484596235248	777.524272191690	96.490743465500	654.270960477409	685.068442097829	37.111712418289	684.340355398157	893.424879942141	41.015325985609	695.896158655709	1009.680884812644	45.657610255972	424.729122130089	1084.905389686543	58.341114461234	346.559943989574	1149.728595411828	139.350331748420	372.361774754991	1285.263547250323	120.758820353319	347.823762619719	737.218321746858	1101.464980465506	280.458660176185	694.682692893316	846.089933020806	282.416023987386	1082.531064772571	1151.151495302076	819.022203709952	1255.327767787290	1276.092496809329	693.092055595675	
21	3.688571428571	690.203505038724	1005.083479317354	559.086600591370	889.724741585976	1418.474729509342	369.208430779977	990.994538194710	1344.900431047759	529.541368917666	918.069992025013	1433.607749921267	699.318084224507	898.786603840773	1482.341916950901	526.333318469500	910.062157344641	934.887670456980	681.304980802126	903.737690336485	945.874630695364	404.540439968174	904.842383635960	721.779632629470	658.816487655167	793.785166600620	631.449117489538	713.331588270753	858.767650708130	563.104746610800	639.577547270636	838.043689239371	479.840177778908	643.005893540541	975.924794677342	775.175264158893	442.208808497609	944.658965601253	648.988364886353	349.462927095578	1045.439426081410	593.972349934897	416.824695949641	1075.969901868494	528.338744654008	410.875205392809	1060.296506305628	454.332968184796	397.030335783558	996.732260390090	325.237878496154	341.174398286612	1083.545114844035	226.033477015378	396.360546425972	799.765651472297	396.210400064145	647.983688442903	712.536183263120	302.294326125921	703.531459101888	747.310101459736	202.759635430978	643.488426792806	602.014001645416	44.115140533717	601.461669087916	769.224929704168	96.509789241042	654.239645656193	676.662996378382	37.072885098369	684.311915260091	884.997415253541	40.929044030765	695.972265906487	1004.505701164515	42.586108484397	427.749551146435	1079.139785184759	53.765396456836	348.840146518599	1145.495734315330	133.292907767003	374.022593908973	1280.436303878042	112.050344553905	348.375733429164	735.845608318593	1100.862729875604	278.440590373187	694.057019910862	845.148013308789	281.101379876683	1080.840606169462	1151.174826177736	818.249752619797	1252.291624763643	1277.682250310297	692.270278677547	
22	3.700500000000	692.022287319594	1002.756805416626	555.852928239884	889.072340461246	1417.103897345053	366.549422117531	990.171198694901	1344.535057259604	527.492850608812	915.357487823081	1432.543713851692	696.921937313203	896.328358658135	1480.973909632384	523.022963354490	911.478083412814	933.257162744684	679.417086010951	906.589933793272	943.881541195644	402.749448003964	904.976738996457	719.774084378596	657.156045511890	792.861919588129	630.326891295201	711.661181528029	857.209037109588	561.263371837401	638.090938260016	835.395133334377	477.854541656185	641.392264444981	977.652709105172	771.010175112219	440.756921989275	943.869375269078	644.786053536436	349.030627428804	1044.463286677976	589.273455383885	416.335987480600	1073.321337597663	522.910090282186	411.090294958287	1057.247919313993	449.230787771532	397.117704397206	992.316001214278	320.393349704316	342.550621712012	1078.798038074920	220.956212985537	397.738991523674	796.062191869847	394.589842326964	646.717627004127	707.549595811668	301.992946600923	702.671963027405	740.674156053111	201.867856157582	642.852371809908	593.631524348054	44.118800649817	601.473970362523	760.943613622806	96.515031107640	654.158235026069	668.287561880363	37.056547685367	684.303108571185	876.614298712315	40.817326348478	696.044950395395	997.755421565178	39.999612055777	430.459977174176	1071.958132090995	49.328332632397	350.914399524986	1140.266800915848	126.845388772171	375.750550762004	1274.518392664787	102.100970627312	349.175248295070	735.231309863644	1099.678511769562	276.326625753869	694.314940033947	843.649883074560	279.541583401198	1078.297049110412	1150.476608397461	817.655850066136	1249.017891780268	1277.898560158151	691.687866616885	
